<?xml version="1.0" encoding="utf-8"?>
<!-- Svg Vector Icons : http://www.onlinewebfonts.com/icon -->
<!DOCTYPE svg PUBLIC "-//W3C//DTD SVG 1.1//EN" "http://www.w3.org/Graphics/SVG/1.1/DTD/svg11.dtd">
<svg version="1.1" xmlns="http://www.w3.org/2000/svg" xmlns:xlink="http://www.w3.org/1999/xlink" x="0px" y="0px" viewBox="0 0 1000 1000" enable-background="new 0 0 1000 1000" xml:space="preserve">
<metadata> Svg Vector Icons : http://www.onlinewebfonts.com/icon </metadata>
<g><path d="M932.7,807.8v45.3H796.1v-45.5h91.1V239.2l-0.7-0.7L728.2,56.7l-1-1H295.6v46h-45.7V51.3c0-22.8,18.5-41.3,41.4-41.3h440.3c10.9,0,21.3,4.3,29.1,11.9l160.1,189.1c7.8,7.8,12.3,18.3,12.3,29.4v567.4H932.7z M578.3,158.6l160.1,189.1c7.8,7.8,12.3,18.3,12.3,29.4v567.4h-0.5V990H67.1v-45.9h0.5V188c0-22.8,18.5-41.3,41.4-41.3h440.3C560.2,146.6,570.6,150.9,578.3,158.6z M546.1,193.3l-1-1H113.4v751.8H705V375.9l-0.7-0.7H546.1V193.3z M563.9,829.8H242.4c-22.8,0-41.4-1.4-41.4-24.3c0-22.8,18.5-21.4,41.4-21.4h321.4c22.8,0,41.4-1.4,41.4,21.4C605.2,828.3,586.7,829.8,563.9,829.8z M478.8,648H241.1c-22.8,0-41.3-4.3-41.3-27.1c0-22.8,18.5-18.6,41.3-18.6h237.7c22.8,0,41.3-4.3,41.3,18.6C520.2,643.8,501.7,648,478.8,648z M380.4,466.5H242.4c-22.8,0-41.4,1.4-41.4-21.4c0-22.8,18.5-24.3,41.4-24.3h137.9c22.8,0,41.4-2.8,41.4,20C421.8,463.6,403.2,466.5,380.4,466.5z"/></g>
</svg>