<?xml version="1.0" ?><svg id="Icons" style="enable-background:new 0 0 32 32;" version="1.1" viewBox="0 0 32 32" xml:space="preserve" xmlns="http://www.w3.org/2000/svg" xmlns:xlink="http://www.w3.org/1999/xlink"><g><path d="M18.3,17.3L15,20.6L11.4,17l3.3-3.3c0.4-0.4,0.4-1,0-1.4s-1-0.4-1.4,0L10,15.6l-1.3-1.3c-0.4-0.4-1-0.4-1.4,0s-0.4,1,0,1.4   L7.6,16l-2.8,2.8C3.6,19.9,3,21.4,3,23c0,1.3,0.4,2.4,1.1,3.5l-2.8,2.8c-0.4,0.4-0.4,1,0,1.4C1.5,30.9,1.7,31,2,31s0.5-0.1,0.7-0.3   l2.8-2.8C6.5,28.6,7.7,29,9,29c1.6,0,3.1-0.6,4.2-1.7l2.8-2.8l0.3,0.3c0.2,0.2,0.5,0.3,0.7,0.3s0.5-0.1,0.7-0.3   c0.4-0.4,0.4-1,0-1.4L16.4,22l3.3-3.3c0.4-0.4,0.4-1,0-1.4S18.7,16.9,18.3,17.3z"/><path d="M30.7,1.3c-0.4-0.4-1-0.4-1.4,0l-2.8,2.8C25.5,3.4,24.3,3,23,3c-1.6,0-3.1,0.6-4.2,1.7l-3.5,3.5c-0.4,0.4-0.4,1,0,1.4l7,7   c0.2,0.2,0.5,0.3,0.7,0.3s0.5-0.1,0.7-0.3l3.5-3.5C28.4,12.1,29,10.6,29,9c0-1.3-0.4-2.4-1.1-3.5l2.8-2.8   C31.1,2.3,31.1,1.7,30.7,1.3z"/></g></svg>