<?xml version="1.0" encoding="utf-8"?>
<!-- Svg Vector Icons : http://www.onlinewebfonts.com/icon -->
<!DOCTYPE svg PUBLIC "-//W3C//DTD SVG 1.1//EN" "http://www.w3.org/Graphics/SVG/1.1/DTD/svg11.dtd">
<svg version="1.1" xmlns="http://www.w3.org/2000/svg" xmlns:xlink="http://www.w3.org/1999/xlink" x="0px" y="0px" viewBox="0 0 1000 1000" enable-background="new 0 0 1000 1000" xml:space="preserve">
<metadata> Svg Vector Icons : http://www.onlinewebfonts.com/icon </metadata>
<g><g transform="translate(0.000000,512.000000) scale(0.100000,-0.100000)"><path d="M1728.2,4990.8c-306.3-82.3-536-331.2-593.4-647c-15.3-80.4-21.1-1332.4-21.1-4230.7c0-4489.1-3.8-4276.6,109.1-4468.1c72.7-128.3,201-256.5,308.2-315.8c210.6-114.9,26.8-109.1,3468.8-109.1c2768.1,0,3164.4,3.8,3263.9,28.7c314,82.3,541.7,329.3,601.1,649c28.7,160.8,28.7,8285.2,0,8446c-57.4,310.1-268,545.6-574.3,641.3c-112.9,34.5-233.5,36.4-3286.9,34.5C2294.8,5019.5,1816.2,5015.7,1728.2,4990.8z M8246.5,4567.7c97.6-51.7,172.3-137.8,199.1-231.6c15.3-49.8,19.2-1324.7,15.3-4257.5l-5.7-4184.7l-57.4-84.3c-32.5-44-97.6-103.4-143.6-130.2l-86.1-47.9l-1583.2-5.7l-1585.1-5.7v614.5c0,501.5-3.8,612.6-26.8,612.6c-212.5,0-872.9,91.9-943.8,130.2c-15.3,9.6,68.9,130.2,248.9,358l271.8,346.5l402-1.9c342.7,0,434.6,7.7,616.4,44c706.4,141.7,1324.7,503.5,1766.9,1033.7c348.4,415.4,566.6,871,673.8,1405.1c61.3,308.2,61.3,830.8,0,1135.2c-250.8,1255.8-1186.9,2193.8-2438.9,2444.6c-310.1,61.3-830.8,61.3-1139,0c-1253.9-250.8-2191.9-1188.8-2440.8-2440.8c-61.3-308.2-61.3-832.7,0-1135.2c176.1-880.6,696.8-1623.4,1443.4-2059.8c112.9-67,202.9-126.3,201-134c-1.9-5.7-153.1-130.2-336.9-275.7l-331.2-262.3l-61.3,32.6c-235.5,126.3-710.2,553.2-953.3,859.5l-134,166.6h-141.7h-141.7v2900.2c0,2574.8,3.8,2909.8,28.7,2972.9c49.8,114.9,139.7,193.3,277.6,235.5c26.8,7.7,1460.6,13.4,3187.4,11.5l3139.5-3.8L8246.5,4567.7z M5476.4,3344.5c928.5-160.8,1736.3-861.4,2038.8-1768.8c97.6-292.9,132.1-515,132.1-842.3s-36.3-553.2-132.1-842.3c-302.5-909.3-1116.1-1611.9-2046.4-1768.8c-235.5-40.2-583.9-61.3-583.9-36.4c0,11.5,132.1,187.6,292.9,390.5c434.6,551.3,434.6,553.2,434.6,614.5c0,120.6-84.2,204.8-204.8,206.7c-74.7,0-113-26.8-727.5-511.1c-356.1-281.4-662.3-509.2-681.5-507.3c-19.1,0-116.8,46-218.2,97.6c-735.1,388.6-1250,1087.3-1395.5,1897.1c-44,243.1-44,675.7,0,918.9C2593.5,2356.7,3541,3241.1,4722.2,3375.1C4913.6,3396.1,5260.1,3382.7,5476.4,3344.5z M1772.2-2094.2c181.9-204.8,442.2-446,668.1-612.6l168.5-126.3l-74.7-78.5c-101.5-109.1-134-164.6-168.5-300.5c-38.3-147.4-24.9-256.5,51.7-413.5c99.5-206.7,302.5-331.2,539.8-331.2c239.3,0,361.8,76.6,601.1,381c80.4,101.4,151.2,189.5,157,197.1c7.7,7.7,72.7-1.9,145.5-23c149.3-44,459.4-103.4,627.9-124.4l109.1-11.5l-3.8-415.4l-5.7-415.4H3209.9H1831.6l-86.1,47.9c-45.9,26.8-111,86.1-143.6,130.2l-57.4,84.3l-5.7,1089.2l-3.8,1089.3h44C1611.4-1927.6,1665-1973.5,1772.2-2094.2z M4105.8-2218.6c-308.2-398.2-962.9-1225.2-997.4-1263.4c-91.9-99.6-262.3-86.2-319.7,24.9c-38.3,72.8-36.4,176.1,5.7,225.9c42.1,49.8,1290.3,1033.7,1313.2,1035.6C4117.3-2195.6,4115.3-2207.1,4105.8-2218.6z"/><path d="M1829.6,4372.5c-68.9-42.1-111-143.6-91.9-220.1c5.7-26.8,38.3-70.8,68.9-97.6c160.8-134,394.3,34.5,313.9,225.9c-28.7,72.7-112.9,128.3-187.6,128.3C1908.1,4408.8,1862.2,4391.6,1829.6,4372.5z"/><path d="M7955.5,4372.5c-68.9-42.1-111-143.6-91.9-220.1c5.8-26.8,38.3-70.8,68.9-97.6c160.8-134,394.3,34.5,313.9,225.9c-28.7,72.7-112.9,128.3-187.6,128.3C8034,4408.8,7988,4391.6,7955.5,4372.5z"/><path d="M5696.6-3187.2c-76.6-61.3-84.2-103.4-84.2-480.5c0-361.8,0-363.7,49.8-421.2c90-109.1,275.7-91.9,331.2,28.7c13.4,30.6,21.1,187.6,21.1,421.2v375.2l-55.5,55.5c-45.9,44-72.7,55.5-139.7,55.5C5769.3-3152.8,5719.6-3166.2,5696.6-3187.2z"/><path d="M6309.2-3187.2c-76.6-61.3-84.2-103.4-84.2-480.5c0-361.8,0-363.7,49.8-421.2c90-109.1,275.7-91.9,331.2,28.7c13.4,30.6,21,187.6,21,421.2v375.2l-55.5,55.5c-45.9,44-72.7,55.5-139.7,55.5C6381.9-3152.8,6332.1-3166.2,6309.2-3187.2z"/><path d="M6921.8-3187.2c-76.6-61.3-84.2-103.4-84.2-482.4v-367.6l65.1-65.1c45.9-46,82.3-65.1,126.3-65.1c76.6,0,162.7,49.8,189.5,109.1c13.4,28.7,21.1,191.4,21.1,419.2v375.2l-55.5,55.5c-45.9,44-72.7,55.5-139.7,55.5C6994.5-3152.8,6944.7-3166.2,6921.8-3187.2z"/><path d="M7932.5-3813.2c-72.7-61.3-91.9-137.8-53.6-225.9c28.7-70.8,111-128.3,183.8-128.3c70.8,0,155,57.4,183.8,128.3C8326.9-3847.7,8093.3-3679.2,7932.5-3813.2z"/><path d="M4607.3,2944.4c-323.5-59.3-700.6-222.1-947.6-409.7c-160.8-120.6-409.7-381-515-536c-218.2-321.6-359.9-733.2-379-1106.5c-13.4-245,3.8-294.8,122.5-342.7c145.5-61.3,273.7,45.9,273.7,233.6c0,151.2,51.7,407.7,114.9,587.7c174.2,480.5,604.9,911.2,1085.4,1085.4c178,63.2,436.5,114.9,583.9,114.9c122.5,0,202.9,42.1,237.4,128.3c38.3,88.1,19.2,164.6-53.6,225.9c-51.7,44-70.8,47.9-222.1,45.9C4816,2971.2,4682,2957.8,4607.3,2944.4z"/><path d="M4691.6,1703.9c-252.7-86.1-432.6-229.7-562.8-444.1c-241.2-403.9-178-913.1,153.1-1244.3c398.2-398.2,1037.6-398.2,1435.8,0c319.7,319.7,390.5,802.1,176.1,1204.1c-122.5,231.6-377.1,432.6-635.6,499.6C5089.7,1763.2,4844.7,1755.6,4691.6,1703.9z M5258.2,1286.6c120.6-57.4,235.5-172.3,296.7-294.8c38.3-78.5,47.9-124.4,47.9-258.4c0-149.3-5.7-172.3-65.1-283.3c-72.7-134-132.1-191.4-277.6-268c-84.2-44-120.6-51.7-260.3-51.7c-134,0-179.9,9.6-258.4,47.9c-497.7,243.1-455.6,947.6,67,1137.1C4928.9,1359.3,5133.8,1345.9,5258.2,1286.6z"/><path d="M4909.8,913.3c-74.7-36.4-128.3-141.7-111-218.2c15.3-70.8,91.9-147.4,162.7-162.7c78.5-17.2,181.9,36.4,218.2,114.9c17.2,34.5,30.6,72.7,30.6,86.1c0,57.4-65.1,153.1-124.4,180C5007.4,951.5,4986.4,951.5,4909.8,913.3z"/><path d="M1806.7-3813.2c-72.8-61.3-91.9-137.8-53.6-225.9c28.7-70.8,111-128.3,183.8-128.3c70.8,0,155.1,57.4,183.8,128.3C2201-3847.7,1967.5-3679.2,1806.7-3813.2z"/></g></g>
</svg>