<?xml version="1.0" encoding="utf-8"?>
<!-- Svg Vector Icons : http://www.onlinewebfonts.com/icon -->
<!DOCTYPE svg PUBLIC "-//W3C//DTD SVG 1.1//EN" "http://www.w3.org/Graphics/SVG/1.1/DTD/svg11.dtd">
<svg version="1.1" xmlns="http://www.w3.org/2000/svg" xmlns:xlink="http://www.w3.org/1999/xlink" x="0px" y="0px" viewBox="0 0 1000 1000" enable-background="new 0 0 1000 1000" xml:space="preserve">
<metadata> Svg Vector Icons : http://www.onlinewebfonts.com/icon </metadata>
<g><g transform="matrix(1 0 0 -1 0 480)"><path d="M580.4,408.8L511.5,45.1h248.8L419.6-448.8l68.9,400l-248.8,1.9L580.4,408.8z M580.4,470h-5.7c-8.9-1.3-17.9-5.1-26.8-11.5c-3.8-2.6-7.7-6.4-11.5-11.5l-3.8-3.8L189.9-10.4c-15.3-20.4-17.2-41.8-5.7-64.1c11.5-22.3,29.3-33.5,53.6-33.5l178-1.9l-55.5-327.3c-2.6-14-0.6-27.4,5.7-40.2s16.6-21.7,30.6-26.8c7.7-3.8,15.3-5.7,23-5.7c19.1,0,35.1,8.9,47.9,26.8L810.1,8.7c15.3,20.4,17.2,41.5,5.7,63.2s-29.3,33.2-53.6,34.5h-178l55.5,287.1c1.3,5.1,1.9,10.2,1.9,15.3c0,16.6-5.7,30.6-17.2,42.1s-25.5,17.9-42.1,19.1H580.4z"/></g></g>
</svg>