<?xml version="1.0" encoding="utf-8"?>
<!-- Svg Vector Icons : http://www.onlinewebfonts.com/icon -->
<!DOCTYPE svg PUBLIC "-//W3C//DTD SVG 1.1//EN" "http://www.w3.org/Graphics/SVG/1.1/DTD/svg11.dtd">
<svg version="1.1" xmlns="http://www.w3.org/2000/svg" xmlns:xlink="http://www.w3.org/1999/xlink" x="0px" y="0px" viewBox="0 0 1000 1000" enable-background="new 0 0 1000 1000" xml:space="preserve">
<metadata> Svg Vector Icons : http://www.onlinewebfonts.com/icon </metadata>
<g><g transform="translate(0.000000,511.000000) scale(0.100000,-0.100000)"><path d="M2126.3,5000.8c-186.2-68.5-312.4-188.3-404.4-389.4c-47.1-98.4-49.2-130.5-49.2-564.9c0-451.5,2.1-462.2,55.6-577.7c77-166.9,171.2-265.3,323.1-342.3c263.2-130.5,599.1-66.3,796,149.8c162.6,181.9,173.3,226.8,173.3,770.3c0,449.3-2.1,487.8-47.1,582c-115.5,248.2-353,402.3-616.2,402.3C2276.1,5028.6,2171.2,5015.7,2126.3,5000.8z"/><path d="M6763,5007.2c-184-53.5-387.3-261-438.6-451.5c-12.9-53.5-19.3-265.3-15-560.6c6.4-442.9,8.5-479.3,55.6-562.7c74.9-143.4,169-235.4,308.1-306c109.1-53.5,156.2-64.2,284.6-64.2c83.5,0,196.9,15,252.5,34.2c136.9,47.1,299.6,196.8,372.3,346.6l59.9,122v481.4c0,543.5-10.7,588.4-173.3,770.3c-124.1,136.9-301.7,214-490,211.8C6897.8,5028.6,6799.3,5017.9,6763,5007.2z"/><path d="M100-147.3v-4001.2h2516.3c2004.9,0,2512,6.4,2499.1,27.8c-8.6,12.9-53.5,74.9-98.4,137c-44.9,59.9-115.5,173.3-158.3,250.4l-77,141.2H2783.2H784.7v2599.7v2599.7h3872.8h3872.8V991V374.8l62.1-23.5c87.7-32.1,385.1-211.8,513.5-308.1L9215-40.3v1947.1v1947.1h-594.8h-594.8l-23.6-205.4c-53.5-453.6-323.1-783.1-740.3-911.5c-196.9-57.8-479.3-47.1-661.2,27.8c-400.1,164.8-659,539.2-659,956.4v132.7H4657.5H3373.7v-156.2c0-398-276-791.7-656.9-935c-171.2-66.3-445-81.3-624.8-34.2c-451.5,115.5-772.4,528.5-772.4,990.7v134.8H709.8H100V-147.3z"/><path d="M3373.7,473.2V2.5h481.4h481.4v470.7v470.7h-481.4h-481.4V473.2z"/><path d="M5085.5,473.2V2.5h241.8H5569l211.8,139.1c115.6,77,218.3,139.1,229,139.1c8.5,0,17.1,149.8,17.1,331.7v331.7h-470.7h-470.7V473.2z"/><path d="M6797.2,753.5V563.1l92,23.5c49.2,12.8,261,23.5,468.6,23.5l380.9,2.1v166.9v164.8h-470.7h-470.7V753.5z"/><path d="M7118.1,235.7c-930.8-94.1-1765.2-725.3-2096.9-1587.6c-139.1-359.5-160.5-477.1-158.3-935.1c0-383,4.3-434.3,57.8-626.9C5164.6-3819,5849.3-4503.7,6748-4741.2c278.2-72.7,755.3-92,1044.2-40.6c1367.3,235.4,2295.9,1536.3,2075.5,2901.4C9653.7-564.5,8440.5,370.5,7118.1,235.7z M7862.8-446.8c552-156.2,973.6-511.4,1215.3-1018.5c374.5-783.1,175.5-1711.8-485.7-2272.3C8404.1-3896,8081-4065,7834.9-4131.4c-252.5-66.3-680.4-66.3-930.8,0C5462-3744.1,4989.2-1966,6052.6-921.9c263.2,258.9,577.7,425.8,958.6,507.1C7212.3-369.8,7659.5-386.9,7862.8-446.8z"/><path d="M8038.2-1775.6c-528.5-269.6-549.9-280.3-674-278.2c-94.2,2.1-147.7-8.6-199-40.7c-205.4-126.3-205.4-430.1,0-556.3c151.9-92,374.4-30,445,124.1c27.8,62.1,100.6,104.9,614.1,370.2c320.9,164.8,599.1,320.9,616.2,346.6c53.5,77.1,40.7,181.9-30,252.5C8701.5-1448.2,8650.2-1463.2,8038.2-1775.6z"/><path d="M1683.4-992.5v-481.4h470.7h470.7v481.4V-511h-470.7h-470.7V-992.5z"/><path d="M3382.3-538.9c-4.3-15-6.4-228.9-4.3-475l6.4-449.3l477.1-6.4l475-4.3v481.4V-511h-470.7C3502.1-511,3390.8-517.5,3382.3-538.9z"/><path d="M1683.4-2447.5v-481.4h470.7h470.7v481.4v481.4h-470.7h-470.7V-2447.5z"/><path d="M3388.7-1978.9c-8.6-8.6-15-226.8-15-483.6v-466.4h481.4h481.4l-4.3,477.1l-6.4,475l-462.2,6.4C3611.2-1968.2,3397.2-1972.4,3388.7-1978.9z"/></g></g>
</svg>